<svg xmlns="http://www.w3.org/2000/svg" viewBox="0 0 1261 1261" fill="none"><path fill="#fff" d="M12 0C5.373 0 0 5.373 0 12v765.617c0 3.005.63 5.968 1.891 8.701l84.15 185.119c3.563 7.84-2.096 16.862-10.516 18.672C32.426 999.374 0 1037.64 0 1083.47V1249c0 6.63 5.373 12 12 12h1237c6.63 0 12-5.37 12-12v-165.53c0-45.95-32.57-84.287-75.84-93.441-8.4-1.778-14.08-10.738-10.58-18.58l84.59-189.44a20.706 20.706 0 0 0 1.83-8.554V12c0-6.627-5.37-12-12-12H12z"/><path fill="#000" d="M12 0C5.373 0 0 5.373 0 12v765.617c0 3.005.63 5.968 1.891 8.701l84.15 185.119c3.563 7.84-2.096 16.862-10.516 18.672C32.426 999.374 0 1037.64 0 1083.47V1249c0 6.63 5.373 12 12 12h1237c6.63 0 12-5.37 12-12v-165.53c0-45.95-32.57-84.287-75.84-93.441-8.4-1.778-14.08-10.738-10.58-18.58l84.59-189.44a20.706 20.706 0 0 0 1.83-8.554V12c0-6.627-5.37-12-12-12H12zm954.767 882.7c-23.182 0-42.034-18.852-42.034-42.033 0-23.182 18.852-42.034 42.034-42.034 23.181 0 42.033 18.852 42.033 42.034 0 23.181-18.852 42.033-42.033 42.033zm21.016 48.329c0-5.465 3.731-10.157 8.838-12.104 31.609-12.053 54.209-42.445 54.209-78.258 0-46.363-37.7-84.067-84.063-84.067S882.7 794.304 882.7 840.667c0 35.813 22.603 66.205 54.213 78.258 5.106 1.947 8.837 6.639 8.837 12.104v44.754c0 6.628-5.373 12-12 12H894.7c-6.627 0-12-5.372-12-12V945.75c0-11.622-9.394-21.017-21.017-21.017H756.6c-11.622 0-21.017 9.395-21.017 21.017v30.033c0 6.628-5.372 12-12 12H537.417c-6.628 0-12-5.372-12-12V945.75c0-11.622-9.395-21.017-21.017-21.017H399.317c-11.623 0-21.017 9.395-21.017 21.017v30.033c0 6.628-5.373 12-12 12h-39.05c-6.627 0-12-5.372-12-12v-44.754c0-5.465 3.731-10.157 8.837-12.104 31.61-12.053 54.213-42.445 54.213-78.258 0-46.363-37.704-84.067-84.067-84.067-46.362 0-84.066 37.704-84.066 84.067 0 35.813 22.603 66.205 54.212 78.258 5.107 1.947 8.838 6.639 8.838 12.104v44.754c0 6.628-5.373 12-12 12h-97.905c-7.195 0-12.772-6.286-11.915-13.429l58.623-488.575c.105-.819.147-1.66.147-2.501 0-13.492 4.371-25.955 11.622-36.211 2.627-3.72 5.695-7.041 8.974-10.046.883-.799 1.828-1.514 2.753-2.27a64.184 64.184 0 0 1 8.68-5.969c1.135-.651 2.291-1.303 3.468-1.891 3.173-1.556 6.473-2.754 9.878-3.762 1.156-.337 2.269-.799 3.446-1.072 4.603-1.072 9.311-1.724 14.124-1.724h714.776c4.813 0 9.521.652 14.122 1.745 1.18.273 2.29.735 3.45 1.072 3.38 1.008 6.7 2.206 9.88 3.762 1.19.588 2.33 1.24 3.46 1.891a62.028 62.028 0 0 1 8.68 5.969c.93.756 1.87 1.471 2.76 2.27 3.28 3.026 6.34 6.326 8.97 10.046 7.25 10.235 11.62 22.698 11.62 36.19 0 .841.05 1.682.15 2.501l58.62 488.575c.86 7.143-4.72 13.429-11.91 13.429h-97.907c-6.627 0-12-5.372-12-12v-44.754zm-147.116 46.246c0 5.804-4.705 10.508-10.509 10.508h-42.033c-5.804 0-10.508-4.704-10.508-10.508 0-5.804 4.704-10.508 10.508-10.508h42.033c5.804 0 10.509 4.704 10.509 10.508zm-357.284 0c0 5.804-4.704 10.508-10.508 10.508h-42.033c-5.804 0-10.509-4.704-10.509-10.508 0-5.804 4.705-10.508 10.509-10.508h42.033c5.804 0 10.508 4.704 10.508 10.508zM294.233 882.7c-23.181 0-42.033-18.852-42.033-42.033 0-23.182 18.852-42.034 42.033-42.034 23.182 0 42.034 18.852 42.034 42.034 0 23.181-18.852 42.033-42.034 42.033zM1064.1 400.854c-3.16 2.792-8.16 3.057-11.46.438-2.71-2.143-5.34-4.371-8.28-6.263-2.65-1.702-5.49-3.005-8.28-4.455-3.03-1.577-5.97-3.3-9.16-4.603-3.3-1.324-6.79-2.165-10.24-3.152-2.9-.841-5.69-1.913-8.7-2.501-6.56-1.282-13.282-2.018-20.092-2.018H273.112c-6.81 0-13.535.736-20.113 2.018-3.006.588-5.78 1.66-8.68 2.501-3.447.987-6.936 1.828-10.235 3.152-3.195 1.282-6.137 3.005-9.164 4.582-2.795 1.45-5.632 2.774-8.301 4.476-2.922 1.871-5.549 4.099-8.26 6.242-3.326 2.611-8.325 2.353-11.49-.449l-96.688-85.604c-8.27-7.322-3.09-20.985 7.955-20.985H1152.88c11.05 0 16.23 13.664 7.96 20.986l-96.74 85.635zM42.033 54.034c0-6.628 5.373-12 12-12H1206.97c6.62 0 12 5.372 12 12V240.2c0 6.627-5.38 12-12 12H54.033c-6.627 0-12-5.373-12-12V54.033zm0 292.512c0-10.343 12.21-15.841 19.955-8.985l109.028 96.525c3.945 3.493 5.085 9.129 3.299 14.086-3.815 10.588-6.032 21.922-6.182 33.782l-48.864 407.263c-1.446 12.05-17.819 14.584-22.84 3.535l-53.32-117.33a12 12 0 0 1-1.076-4.965V346.546zM1218.97 1083.47v123.5c0 6.62-5.38 12-12 12H54.033c-6.627 0-12-5.38-12-12v-123.5c0-29.57 24.085-53.65 53.656-53.65H1165.31c29.57 0 53.66 24.08 53.66 53.65zm-54.56-192.307c-4.96 11.12-21.42 8.628-22.87-3.463l-48.67-405.746c-.15-11.855-2.37-23.184-6.18-33.757-1.79-4.96-.65-10.599 3.3-14.093l109.02-96.539c7.75-6.857 19.96-1.36 19.96 8.984v419.873c0 1.685-.36 3.352-1.05 4.892l-53.51 119.849z"/><path fill="#000" d="M1143.92 1050.83h-18.04c-6.62 0-12 5.38-12 12v123.12c0 6.63 5.38 12 12 12h18.04c6.62 0 12-5.37 12-12v-123.12c0-6.62-5.38-12-12-12zM998.292 1050.83c-40.562 0-73.558 33-73.558 73.56s32.996 73.56 73.558 73.56c40.558 0 73.558-33 73.558-73.56s-33-73.56-73.558-73.56zm0 105.09c-17.381 0-31.525-14.15-31.525-31.53 0-17.38 14.144-31.52 31.525-31.52 17.378 0 31.528 14.14 31.528 31.52s-14.15 31.53-31.528 31.53zM135.117 1050.83h-18.034c-6.627 0-12 5.38-12 12v123.12c0 6.63 5.373 12 12 12h18.034c6.627 0 12-5.37 12-12v-123.12c0-6.62-5.373-12-12-12zM262.708 1050.83c-40.562 0-73.558 33-73.558 73.56s32.996 73.56 73.558 73.56c40.563 0 73.559-33 73.559-73.56s-32.996-73.56-73.559-73.56zm0 105.09c-17.38 0-31.525-14.15-31.525-31.53 0-17.38 14.145-31.52 31.525-31.52 17.381 0 31.525 14.14 31.525 31.52s-14.144 31.53-31.525 31.53zM210.167 126.1h-9.017c-6.627 0-12-5.373-12-12V84.067c0-11.623-9.394-21.017-21.017-21.017-11.622 0-21.016 9.394-21.016 21.017v31.524c0 5.804-4.705 10.509-10.509 10.509-5.803 0-10.508-4.705-10.508-10.509v-10.508c0-11.622-9.394-21.016-21.017-21.016-11.622 0-21.016 9.394-21.016 21.016v84.067c0 11.622 9.394 21.016 21.016 21.016 11.623 0 21.017-9.394 21.017-21.016v-10.509c0-5.803 4.705-10.508 10.508-10.508 5.804 0 10.509 4.705 10.509 10.508v31.525c0 11.623 9.394 21.017 21.016 21.017 11.623 0 21.017-9.394 21.017-21.017v-30.033c0-6.627 5.373-12 12-12h9.017c11.622 0 21.016-9.394 21.016-21.017 0-11.622-9.394-21.016-21.016-21.016zM300.328 132.194c-3.804 3.972-6.095 9.226-6.095 14.922 0 5.464 2.291 10.928 6.095 14.922 3.972 3.783 9.458 6.094 14.922 6.094s10.929-2.311 14.922-6.094c3.783-3.994 6.095-9.458 6.095-14.922 0-5.465-2.312-10.95-6.095-14.922-7.986-7.776-21.857-7.776-29.844 0zM399.317 168.133c11.607 0 21.016-9.41 21.016-21.017s-9.409-21.017-21.016-21.017c-11.607 0-21.017 9.41-21.017 21.017s9.41 21.017 21.017 21.017zM567.45 168.133c11.607 0 21.017-9.41 21.017-21.017s-9.41-21.017-21.017-21.017-21.017 9.41-21.017 21.017 9.41 21.017 21.017 21.017zM483.383 168.133c11.608 0 21.017-9.41 21.017-21.017s-9.409-21.017-21.017-21.017c-11.607 0-21.016 9.41-21.016 21.017s9.409 21.017 21.016 21.017zM636.595 132.194c-3.804 3.972-6.095 9.226-6.095 14.922 0 5.464 2.291 10.928 6.095 14.922 3.972 3.783 9.457 6.094 14.922 6.094 5.464 0 10.928-2.311 14.921-6.094 3.783-3.994 6.095-9.458 6.095-14.922 0-5.465-2.312-10.95-6.095-14.922-7.776-7.776-21.857-7.776-29.843 0zM1113.88 63.05c-46.36 0-84.06 37.704-84.06 84.066 0 46.363 37.7 84.067 84.06 84.067 46.37 0 84.07-37.704 84.07-84.067 0-46.362-37.7-84.066-84.07-84.066zm0 126.1c-23.18 0-42.03-18.852-42.03-42.034 0-23.181 18.85-42.033 42.03-42.033s42.04 18.852 42.04 42.033c0 23.182-18.86 42.034-42.04 42.034z"/><path fill="#000" fill-rule="evenodd" d="M231.198 647.945c-8.559 5.402-17.534 11.33-23.532 15.581-.444 2.381-.889 4.777-1.333 7.173-.444 2.396-.889 4.793-1.333 7.173.366.287 2.085 1.407 4.535 3.004 2.129 1.388 4.809 3.135 7.634 5.008v-4.939h20.065c-1.28-.804-2.57-1.598-3.84-2.381-4.225-2.603-8.231-5.07-10.938-7.293 10.673-7.174 26.33-17.51 37.566-23.326h-28.824zm49.959 0c-1.229 6.317-2.455 12.631-3.681 18.946l-.027.139-2.703 13.915h15.399l2.597-13.42c2.603 1.143 4.888 1.587 7.11 1.778.97 2.518 2.786 6.89 4.924 11.642h16.235c-2.314-4.048-4.76-8.653-6.56-12.785 10.449-1.722 18.613-8.429 22.191-20.215h-16.514c-1.553 5.202-4.9 8.916-14.246 8.916h-.508c-2.73 0-6.284-.952-10.029-2.666l1.216-6.25h-15.404zm73.59 0l-2.478 12.788a79679.81 79679.81 0 0 1-3.917 20.212h16.404l1.161-5.929c2.793-4.571 7.109-8.506 7.109-8.506 2.577 3.165 5.713 8.578 8.679 14.435h17.186c-5.063-10.06-11.375-20.795-14.883-25.099l1.281-1.288c1.641-1.652 3.938-3.966 6.665-6.613h-37.207zm77.127 0c1.113 4.675 3.863 8.691 7.884 10.726 4.252 2.144 7.849 3.294 11.339 4.411 3.057.978 6.031 1.93 9.293 3.499 4.087 1.978 7.581 5.01 7.581 10.415 0 .857-.066 1.78-.264 2.769a16.84 16.84 0 0 1-.279 1.18h17.035a41.2 41.2 0 0 0 .449-2.103c.395-2.175.593-4.087.593-5.933 0-9.294-4.878-14.634-10.283-17.534-4.695-2.386-8.205-3.565-11.854-4.791-2.267-.761-4.588-1.541-7.278-2.639h-24.216zm70.524 0a74.32 74.32 0 0 1-.941 6.573c-.066.297-.115.577-.165.857-.049.28-.099.56-.165.857l-4.859 24.713h16.19l.403-2.202c.346-1.895.692-3.79 1.054-5.702 3.494-7.91 12.591-21.555 21.094-21.555 2.505 0 3.626 2.043 3.626 6.394 0 2.966-.528 6.921-1.516 12.063-.867 4.448-1.817 8.072-2.877 11.002h16.937c1.23-3.771 2.223-7.897 3.078-12.32.857-4.483 1.385-8.702 1.385-12.459 0-3.07-.332-5.833-1.063-8.221H518.65a17.196 17.196 0 0 0-1.439 2.091c.053-.465.133-1.114.227-1.874l.026-.217h-15.066zm75.743 0c-5.55 5.906-9.355 13.938-11.096 22.987-.659 3.493-.988 6.789-.988 9.887v.126h30.953c16.344-3.132 24.257-7.865 27.516-16.539.593-1.582 1.055-4.417 1.055-6.724 0-3.163-.65-6.608-2.319-9.737h-45.121zm67.714 0c-4.109 4.842-7.561 11.681-9.398 21.207-.837 4.415-1.378 8.338-1.625 11.793h16.421c.225-2.629.694-5.855 1.486-9.816 3.493-17.534 11.074-20.171 15.425-20.171 4.218 0 8.107 3.165 9.953 5.933-.626 3.263-1.269 6.542-1.911 9.822-.643 3.279-1.286 6.559-1.912 9.822-.512.988-1.445 2.592-2.676 4.41h17.871a10512.11 10512.11 0 0 0 3.888-19.802c.861-4.4 1.722-8.801 2.587-13.198h-50.109zm69.123 0c-1.071 5.508-2.14 11.018-3.21 16.527l-3.199 16.473h16.396c1.375-7.056 2.748-14.112 4.107-21.153 0 0 11.404-8.438 16.216-8.438 3.295 0 4.614 2.505 4.614 4.746 0 .33 0 .659-.066.989-1.121 5.867-3.56 8.701-7.713 8.701-1.384 0-2.9-.33-4.68-.923-.425.468-3.049 4.756-5.068 8.055-1.108 1.811-2.034 3.324-2.315 3.745a342.861 342.861 0 0 0 2.688 4.278h19.867a139.246 139.246 0 0 1-3.043-4.608c8.701-1.187 14.238-7.778 16.48-19.775.329-1.78.527-3.362.527-4.878 0-1.35-.136-2.595-.404-3.739h-51.197zm72.782 0c-5.55 5.906-9.355 13.938-11.096 22.987-.659 3.493-.988 6.789-.988 9.887v.126h30.953c16.344-3.132 24.257-7.865 27.516-16.539.593-1.582 1.055-4.417 1.055-6.724 0-3.163-.65-6.608-2.319-9.737H787.76zm65.475 0l-.435.443.387.421.001.001c2.788 3.029 5.017 5.452 5.017 8.477 0 .395-.066.857-.132 1.252a14866.5 14866.5 0 0 0-4.345 22.406h17.927c6.792-14.512 18.496-29.261 21.75-29.261 1.384 0 1.78 1.186 1.78 2.636 0 1.597-.516 3.537-.818 4.676l-.002.006c-.071.269-.131.494-.169.658 2.769-.033 5.554-.05 8.339-.066 2.785-.017 5.57-.033 8.338-.066l.396-1.978c.395-1.911.395-4.35.395-5.998a18.8 18.8 0 0 0-.329-3.607h-32.227c-2.068 2.476-3.887 5.114-5.478 7.562 0-3.016-.274-5.495-.737-7.562h-19.658zm118.44 0a4024.667 4024.667 0 0 1-20.451 33h16.244a8542.747 8542.747 0 0 0 20.362-33h-16.155zm44.745 0c8.7 5.718 19.14 15.159 26.92 22.246-3.69 2.287-8.86 4.767-14.28 7.369v.003a570.186 570.186 0 0 0-6.97 3.382h31.19c3.34-1.735 5.7-2.962 6.18-3.263.19-2.127.4-4.237.61-6.348.2-2.111.41-4.221.6-6.348-4.75-4.638-12.24-11.272-19.22-17.041h-25.03zm-512.245 78h-16.383a100.5 100.5 0 0 0-.573 5.697c2.735-.066 5.471-.148 8.206-.231 2.736-.082 5.472-.164 8.207-.23.143-1.615.319-3.366.543-5.236zm-81.991-45h17.605c.068-1.131.243-2.369.496-3.685-2.933-.033-5.85-.05-8.767-.066-2.917-.017-5.834-.033-8.767-.066a41.08 41.08 0 0 0-.567 3.817zm162-11.727c2.175-11.338 8.833-18.194 15.293-18.194 7.119 0 9.426 3.692 9.426 7.054 0 2.175-1.78 4.416-3.362 5.734-1.911 1.583-12.524 4.351-21.357 5.406zm209.619 0c2.175-11.338 8.833-18.194 15.293-18.194 7.119 0 9.426 3.692 9.426 7.054 0 2.175-1.779 4.416-3.361 5.734-1.912 1.583-12.525 4.351-21.358 5.406z" clip-rule="evenodd"/><path fill="#000" fill-rule="evenodd" d="M1037.45 647.945h-25.03a63.498 63.498 0 0 0-2.6-1.621 534.07 534.07 0 0 0 4.54-5.744c1.51-1.921 3.02-3.841 4.54-5.745 1.66.552 2.68 1.224 3.88 2.014v.001c.32.209.65.426 1.01.651 3.27 2.119 8.32 6.028 13.66 10.444zm-418.188 0h-45.121c6.013-6.398 14.074-10.302 23.775-10.302 11.94 0 18.32 4.629 21.346 10.302zm72.702 0h-50.109c7.094-8.358 16.149-10.763 22.243-10.763 5.339 0 10.81 2.043 13.315 5.735.231-.923.445-1.846.659-2.769.214-.923.429-1.846.659-2.769l15.162.791a4967.88 4967.88 0 0 0-1.929 9.775zm70.211 0h-51.197c1.552-7.986 3.107-15.969 4.668-23.947.461-2.439.659-4.68.659-6.658a28.86 28.86 0 0 0-.198-3.559c2.768-.495 5.537-.973 8.306-1.45 2.768-.478 5.537-.956 8.305-1.451l.08.387v.002c.209.996.514 2.456.514 4.423 0 1.187-.132 2.505-.396 4.021-.494 2.439-.972 4.895-1.45 7.35a985.285 985.285 0 0 1-1.45 7.35c-.725 3.823-2.308 7.976-4.219 11.47 0 0 9.294-7.976 18.721-7.976 9.771 0 16.058 3.194 17.657 10.038zm66.706 0H783.76c6.013-6.398 14.074-10.302 23.775-10.302 11.94 0 18.32 4.629 21.346 10.302zm138.794 0c9.371-15.285 18.143-29.841 23.36-38.945l12.185 6.855c-4.486 7.671-11.571 19.343-19.39 32.09h-16.155zm-60.34 0c-1.31-6.699-6.468-10.236-14.436-10.236-7.328 0-13.179 4.714-17.791 10.236h32.227zm-38.442 0h-19.658c1.868-1.896 3.749-3.792 5.629-5.688 2.027-2.043 4.054-4.087 6.065-6.13.415.399.86.792 1.322 1.199 2.43 2.144 5.314 4.688 6.642 10.619zm-318.314 0h-35.928c3.901-4.886 11.619-9.775 21.302-9.775 8.252 0 12.751 3.652 14.626 9.775zm-37.115 0c.373-3.027.934-7.638.934-9.643 0-.154-.023-.331-.041-.478a2.233 2.233 0 0 1-.025-.247c-2.571.297-5.125.577-7.679.857-2.555.28-5.109.56-7.68.857-.117 2.548-.258 5.516-.575 8.654h15.066zm-29.672 78h16.383c-.224 1.87-.4 3.621-.543 5.236-2.735.066-5.471.148-8.206.23-2.736.083-5.472.165-8.207.231a100.5 100.5 0 0 1 .573-5.697zm-151.15-78c.378-1.245.705-2.547.978-3.906.381-1.841.571-3.682.571-5.522 0-3.682-.761-7.173-2.285-9.712-5.84-9.712-19.677-10.22-35.547-10.22-3.798 0-11.016.672-13.867.937l-.161.015c-.508 3.936-1.016 6.983-1.841 11.299-1.114 5.706-2.224 11.409-3.333 17.109h15.404l.974-5.017c.73-3.761 1.46-7.522 2.19-11.267 1.84-.063 2.348-.063 3.999-.063 10.854 0 17.392 2.348 17.392 10.283 0 1.079-.127 2.222-.381 3.555-.17.866-.367 1.705-.607 2.509h16.514zm55.312 0h-37.207c1.921-9.909 3.844-19.821 5.774-29.741h16.377c-.952 4.92-1.904 9.823-2.856 14.727-.952 4.903-1.904 9.807-2.856 14.726 7.93-8.778 30.64-27.832 35.149-31.615l.003-.003.521-.437 10.284 11.235c-8.717 5.657-18.318 14.44-25.189 21.108zm64.136 0h-24.216a20.604 20.604 0 0 1-.554-4.765c0-1.516.198-3.032.528-4.548 3.164-14.436 14.897-21.226 31.706-21.226h.593c15.821 0 25.247 3.032 30.389 8.965l-11.866 12.656c-5.339-6.723-16.215-7.778-20.83-7.778-3.296 0-11.403 2.373-12.26 6.855-.198.923-.264 1.78-.264 2.505 0 4.417 2.9 5.735 5.933 6.988.284.119.564.236.841.348zm-196.068 0h-28.824c7.926-5.002 15.496-9.554 20.013-11.904.311-.16.609-.316.899-.467 1.666-.871 3.067-1.604 5.068-2.199l5.713 13.14c-.918.438-1.876.916-2.869 1.43zm-42.853 9.087v28.852c-2.825-1.873-5.505-3.62-7.634-5.008-2.45-1.597-4.169-2.717-4.535-3.004.444-2.38.889-4.777 1.333-7.173.444-2.396.889-4.792 1.333-7.173a405.324 405.324 0 0 1 9.503-6.494z" clip-rule="evenodd"/><path fill="#000" fill-rule="evenodd" d="M213.169 657.031a408.2 408.2 0 0 0-9.503 6.495c-.444 2.381-.889 4.777-1.333 7.173-.444 2.396-.889 4.793-1.333 7.173.366.286 2.085 1.407 4.535 3.004 7.322 4.774 21.177 13.805 24.982 17.562 2.602 2.413 5.268 5.332 6.347 7.618 1.936-2 3.856-4.015 5.777-6.031 1.92-2.015 3.84-4.03 5.776-6.03-1.952-4.321-8.438-8.815-15.183-13.05h-20.065v-23.914zm57.577 23.914c-1.424 7.33-2.851 14.662-4.284 22h15.425l4.258-22h-15.399zm30.03 0c3.035 6.747 6.718 14.259 9.548 18.319 1.651 2.729 4.824 5.903 8.379 6.474a906.313 906.313 0 0 1 4.888-5.967c1.634-1.983 3.269-3.967 4.888-5.966-2.54-.699-5.142-2.984-6.094-3.999-1.297-1.99-3.281-5.198-5.374-8.861h-16.235zm43.577 0c-1.443 7.437-2.887 14.875-4.335 22.318h16.377c.92-4.698 1.84-9.411 2.761-14.124l1.601-8.194h-16.404zm33.352 0c4.707 9.296 8.985 19.709 9.92 24.032 2.476-.921 4.951-1.825 7.427-2.73 2.475-.905 4.951-1.809 7.427-2.729-.656-3.769-3.766-10.978-7.588-18.573h-17.186zm40.479 0a31.758 31.758 0 0 0-.158 3.104c0 11.865 7.053 20.962 26.499 21.49h1.252c15.246 0 30.308-6.428 34.686-24.594h-17.035c-2.388 8.64-10.883 10.817-15.871 10.817-8.24 0-11.799-3.428-11.799-9.822 0-.321.01-.653.031-.995h-17.605zm74.085 0l-6.611 33.624c-1.187 5.999-2.11 12.261-2.439 17.073 2.735-.066 5.471-.148 8.207-.231 2.735-.082 5.471-.164 8.206-.23a161.72 161.72 0 0 1 2.242-16.216c.197-.989.395-1.994.593-2.999.198-1.006.395-2.011.593-3 .235-1.721.33-3.28.424-4.814.064-1.051.128-2.09.235-3.162 1.516 2.044 4.087 4.483 10.679 4.483 19.097 0 27.85-9.415 32.781-24.528h-16.937c-3.131 8.665-7.213 11.278-12.878 11.278-4.944 0-7.778-3.955-9.558-7.778.222-1.172.438-2.337.652-3.5h-16.189zm69.788 0c.045 15.023 8.151 24.659 23.796 24.659 15.184 0 19.224-2.143 29.529-7.609l1.189-.63-6.724-11.866c-6.46 4.747-13.974 6.526-20.962 6.526-6.262 0-10.019-4.746-10.019-8.965 5.299-.627 9.994-1.319 14.144-2.115h-30.953zm68.775 0a57.76 57.76 0 0 0-.155 4.093c0 16.545 7.844 20.632 16.743 20.632 11.997 0 19.578-3.955 24.917-12.92-.066.462-.066.857-.066 1.319 0 6.13 3.758 10.481 6.46 12.92 1.747-1.45 3.478-2.901 5.208-4.351 1.73-1.45 3.461-2.9 5.207-4.35-2.57-2.439-4.614-6.263-4.614-10.943 0-1.055.132-2.109.33-3.23l.627-3.17h-17.871c-3.365 4.97-8.956 11.542-14.265 11.542-3.032 0-6.262-.066-6.262-8.042 0-1.03.051-2.191.162-3.5h-16.421zm73.737 0c-1.556 8.004-3.114 16.005-4.678 24h16.414c1.45-7.514 2.917-15.046 4.383-22.577l.277-1.423h-16.396zm24.179 0c7.243 11.339 14.875 21.758 19.329 25.978 2.406-1.813 4.829-3.642 7.251-5.471a8262.08 8262.08 0 0 1 7.251-5.472c-5.609-4.729-9.154-8.082-13.964-15.035h-19.867zm42.928 0c.045 15.023 8.151 24.659 23.796 24.659 15.184 0 19.224-2.143 29.529-7.609l1.189-.63-6.724-11.866c-6.46 4.747-13.974 6.526-20.962 6.526-6.262 0-10.019-4.746-10.019-8.965 5.3-.627 9.994-1.319 14.144-2.115h-30.953zm78.052 0l-.269 1.39c-1.533 7.927-3.065 15.854-4.614 23.797h16.611l3.757-19.38a75.514 75.514 0 0 1 2.442-5.807h-17.927zm97.496 0c-6.469 10.323-12.061 19.118-15.539 24.412 2.031 1.175 4.078 2.349 6.125 3.523 2.047 1.175 4.094 2.349 6.125 3.523 1.351-2.177 3.057-4.922 5.035-8.105l.036-.057c3.957-6.368 8.998-14.479 14.462-23.296h-16.244zm70.866 0c-7.46 3.711-14.42 7.595-17.66 11.463 1.36 2.254 2.74 4.491 4.13 6.729a816.43 816.43 0 0 1 4.12 6.728c1.97-2.285 5.78-5.205 9.27-7.617 5.11-3.671 21.85-12.376 31.18-17.226l.01-.001c.04-.025.09-.051.14-.076h-31.19z" clip-rule="evenodd"/></svg>